HIERARCHY
ROOT Hips
{
 OFFSET 0.000000 0.000000 0.000000
 CHANNELS 6 Xposition Yposition Zposition Yrotation Xrotation Zrotation
 JOINT Chest
 {
  OFFSET 0.000000 9.585900 0.002600
  CHANNELS 3 Yrotation Xrotation Zrotation
  JOINT Chest2
  {
   OFFSET 0.000000 9.601200 -0.005300
   CHANNELS 3 Yrotation Xrotation Zrotation
   JOINT Chest3
   {
    OFFSET 0.000000 9.561800 0.000000
    CHANNELS 3 Yrotation Xrotation Zrotation
    JOINT Chest4
    {
     OFFSET 0.000000 9.552100 0.000000
     CHANNELS 3 Yrotation Xrotation Zrotation
     JOINT Neck
     {
      OFFSET 0.000000 14.453000 0.000000
      CHANNELS 3 Yrotation Xrotation Zrotation
      JOINT Head
      {
       OFFSET 0.000000 8.936500 -0.011300
       CHANNELS 3 Yrotation Xrotation Zrotation
       End Site
       {
        OFFSET 0.000000 17.073600 -0.006000
       }
      }
     }
     JOINT RightCollar
     {
      OFFSET -2.921100 9.558500 0.000000
      CHANNELS 3 Yrotation Xrotation Zrotation
      JOINT RightShoulder
      {
       OFFSET -13.519700 0.000000 0.000000
       CHANNELS 3 Yrotation Xrotation Zrotation
       JOINT RightElbow
       {
        OFFSET 0.000000 -29.696600 0.000000
        CHANNELS 3 Yrotation Xrotation Zrotation
        JOINT RightWrist
        {
         OFFSET 0.000000 -24.004700 0.000000
         CHANNELS 3 Yrotation Xrotation Zrotation
         End Site
         {
          OFFSET 0.000000 -17.728500 0.000000
         }
        }
       }
      }
     }
     JOINT LeftCollar
     {
      OFFSET 2.921100 9.558500 0.000000
      CHANNELS 3 Yrotation Xrotation Zrotation
      JOINT LeftShoulder
      {
       OFFSET 13.519700 0.000000 0.000000
       CHANNELS 3 Yrotation Xrotation Zrotation
       JOINT LeftElbow
       {
        OFFSET 0.000000 -29.696600 0.000000
        CHANNELS 3 Yrotation Xrotation Zrotation
        JOINT LeftWrist
        {
         OFFSET 0.000000 -24.004700 0.000000
         CHANNELS 3 Yrotation Xrotation Zrotation
         End Site
         {
          OFFSET 0.000000 -17.728500 0.000000
         }
        }
       }
      }
     }
    }
   }
  }
 }
 JOINT RightHip
 {
  OFFSET -7.771700 -0.012900 -0.001300
  CHANNELS 3 Yrotation Xrotation Zrotation
  JOINT RightKnee
  {
   OFFSET 0.000000 -40.869800 0.001200
   CHANNELS 3 Yrotation Xrotation Zrotation
   JOINT RightAnkle
   {
    OFFSET 0.000000 -39.717900 0.002100
    CHANNELS 3 Yrotation Xrotation Zrotation
    JOINT RightToe
    {
     OFFSET 0.000000 -4.965400 11.033500
     CHANNELS 3 Yrotation Xrotation Zrotation
     End Site
     {
      OFFSET 0.000000 -1.423100 5.872300
     }
    }
   }
  }
 }
 JOINT LeftHip
 {
  OFFSET 7.771700 -0.012900 -0.001300
  CHANNELS 3 Yrotation Xrotation Zrotation
  JOINT LeftKnee
  {
   OFFSET 0.000000 -40.869800 0.001200
   CHANNELS 3 Yrotation Xrotation Zrotation
   JOINT LeftAnkle
   {
    OFFSET 0.000000 -39.717900 0.002100
    CHANNELS 3 Yrotation Xrotation Zrotation
    JOINT LeftToe
    {
     OFFSET 0.000000 -4.965400 11.033500
     CHANNELS 3 Yrotation Xrotation Zrotation
     End Site
     {
      OFFSET 0.000000 -1.423100 5.872300
     }
    }
   }
  }
 }
}
MOTION
Frames: 12
Frame Time: 0.008333
-87.263747 55.897757 -45.923638 -171.627956 -16.573257 -0.580488 -1.498924 17.132889 0.388385 -0.158377 1.807215 0.089558 -0.267948 2.998542 0.140525 -1.259606 15.059324 0.602963 0.371536 13.449132 4.050846 -0.534714 -11.542188 4.200783 2.095053 1.198248 0.995762 3.720169 -8.745815 -9.817346 -68.248563 -51.649653 103.546131 -15.919150 9.195878 5.726148 -6.798116 -1.189751 0.902940 2.073884 -13.364249 6.923360 52.595538 -47.999045 -94.331739 10.066396 -9.086311 12.549034 -4.331732 -59.325464 7.122269 -34.031651 84.731728 -40.241666 -8.932828 -14.532186 11.229205 0.057368 -0.044683 0.045775 10.911582 -54.872815 -13.531480 87.213460 70.656095 88.837597 0.594873 -18.960576 -2.672212 0.033653 0.307340 0.029676
-87.262238 55.886872 -45.923636 -171.637258 -16.571484 -0.580891 -1.494309 17.122462 0.385240 -0.158436 1.805852 0.089388 -0.265581 2.999331 0.137350 -1.257280 15.055743 0.600861 0.374707 13.460267 4.070594 -0.535814 -11.532800 4.222768 2.123051 1.134747 0.988426 3.719905 -8.723274 -9.830406 -68.289045 -51.652866 103.580370 -15.919864 9.203147 5.737586 -6.791157 -1.206667 0.904112 2.070002 -13.374150 6.932057 52.638335 -48.002527 -94.387153 10.069738 -9.105125 12.535165 -4.312914 -59.311555 7.131551 -33.843587 84.727370 -40.053591 -8.973755 -14.597450 11.218793 0.062310 -0.022295 0.053075 10.923344 -54.878238 -13.526889 87.223209 70.656558 88.850078 0.590582 -18.974694 -2.675905 0.036498 0.321688 0.030654
-87.260291 55.877380 -45.923635 -171.645991 -16.573731 -0.582925 -1.490987 17.117496 0.380615 -0.154877 1.800446 0.078818 -0.260636 3.005357 0.144792 -1.252582 15.053522 0.598015 0.374532 13.468395 4.088235 -0.540065 -11.533124 4.243932 2.132920 1.101110 0.993715 3.718467 -8.709333 -9.834841 -68.350711 -51.681694 103.649367 -15.922852 9.218096 5.748013 -6.784729 -1.261741 0.893184 2.055470 -13.351307 6.959284 52.690198 -48.008838 -94.444543 10.074621 -9.111896 12.525941 -4.290948 -59.300104 7.138044 -33.409780 84.747896 -39.619607 -9.036502 -14.630735 11.220391 0.059511 0.001925 0.055610 10.926449 -54.879626 -13.518363 87.240351 70.658841 88.867090 0.594823 -18.993161 -2.675773 0.037068 0.338424 0.027014
-87.258535 55.868799 -45.922452 -171.650218 -16.572462 -0.583628 -1.482431 17.113352 0.374428 -0.157057 1.799349 0.080105 -0.260244 3.004257 0.141569 -1.246107 15.053861 0.595453 0.374274 13.468020 4.106577 -0.546357 -11.537349 4.258272 2.142942 1.061336 0.998051 3.714103 -8.694244 -9.835626 -68.370360 -51.685533 103.664707 -15.889330 9.212166 5.775768 -6.788200 -1.288588 0.899634 2.054647 -13.361980 6.969719 52.747426 -48.013277 -94.500544 10.076854 -9.106333 12.520568 -4.270087 -59.293761 7.143285 -32.781528 84.783901 -39.001801 -9.113991 -14.660875 11.237529 0.041980 0.020760 0.048548 10.928907 -54.884966 -13.516238 87.248958 70.657813 88.877896 0.594047 -19.005134 -2.677544 0.039500 0.353304 0.024171
-87.255894 55.861907 -45.922826 -171.657766 -16.582681 -0.589979 -1.477673 17.112811 0.360691 -0.151477 1.808817 0.098127 -0.260452 3.003527 0.138741 -1.241404 15.052747 0.587078 0.373939 13.463652 4.120713 -0.553153 -11.546768 4.268722 2.147391 1.041458 1.006909 3.724741 -8.735474 -9.861194 -68.426189 -51.701643 103.715443 -15.914439 9.217132 5.769590 -6.789761 -1.318494 0.907270 2.053300 -13.372445 6.980573 52.805843 -48.014544 -94.553845 10.075450 -9.100463 12.522651 -4.242838 -59.281658 7.142904 -32.531323 84.804095 -38.739075 -9.157054 -14.679571 11.241293 0.073801 0.014868 0.045295 10.916192 -54.883863 -13.496136 87.273200 70.654475 88.898236 0.602665 -19.007913 -2.671982 0.030119 0.356595 0.015240
-87.253981 55.856081 -45.922560 -171.657933 -16.590927 -0.593373 -1.483151 17.115660 0.351406 -0.148073 1.810253 0.098425 -0.257719 3.006094 0.143686 -1.235920 15.047546 0.575938 0.372786 13.461970 4.135938 -0.555903 -11.548618 4.273587 2.149408 1.024442 1.017452 3.737568 -8.831314 -9.900529 -68.424767 -51.681515 103.694545 -15.940564 9.217652 5.752481 -6.789837 -1.349324 0.916034 2.051457 -13.381305 6.991195 52.857114 -48.015118 -94.598756 10.073353 -9.095460 12.529820 -4.210202 -59.271393 7.122122 -32.126387 84.835713 -38.311531 -9.218959 -14.707632 11.241136 0.078250 0.013610 0.041386 10.901109 -54.881526 -13.485364 87.286307 70.651694 88.909709 0.609393 -19.012307 -2.673438 0.026466 0.363623 0.011583
-87.250325 55.851177 -45.921286 -171.663584 -16.591573 -0.603363 -1.482206 17.107619 0.349187 -0.150573 1.807526 0.089610 -0.255060 2.999903 0.137800 -1.215214 15.052725 0.583511 0.358348 13.441601 4.134289 -0.553148 -11.526568 4.293033 2.150291 0.989630 1.023722 3.728190 -8.873876 -9.912886 -68.370104 -51.646221 103.633640 -15.910932 9.192048 5.759945 -6.792360 -1.377395 0.926188 2.058541 -13.390523 6.999943 52.896892 -48.014129 -94.635068 10.071473 -9.082193 12.535803 -4.163904 -59.252900 7.084063 -31.422963 84.867888 -37.570485 -9.261466 -14.804757 11.261081 0.082892 0.072433 0.011724 10.880453 -54.891230 -13.465266 87.292360 70.646147 88.920645 0.616009 -19.005127 -2.682015 0.026062 0.365840 0.010729
-87.247687 55.848040 -45.921266 -171.671451 -16.599692 -0.604574 -1.482062 17.101338 0.336593 -0.143459 1.819852 0.099725 -0.255828 2.995008 0.133894 -1.206946 15.045954 0.576517 0.347643 13.430602 4.133692 -0.563381 -11.531426 4.302715 2.152889 0.950768 1.027522 3.706161 -8.894601 -9.917047 -68.397184 -51.656838 103.669015 -15.934997 9.192877 5.748483 -6.794246 -1.408379 0.931149 2.077174 -13.398822 7.006521 52.926602 -48.010863 -94.669128 10.069259 -9.059092 12.543604 -4.141910 -59.237326 7.068191 -30.755195 84.912203 -36.880465 -9.334488 -14.858956 11.257873 0.078279 0.087002 0.007948 10.876867 -54.893630 -13.476867 87.310585 70.626520 88.944614 0.653682 -18.987432 -2.685226 -0.005712 0.356047 -0.003468
-87.243872 55.846314 -45.921480 -171.688494 -16.605892 -0.604512 -1.469905 17.094135 0.328639 -0.146200 1.816693 0.097398 -0.249785 3.002459 0.139830 -1.200950 15.049834 0.578986 0.344534 13.428817 4.134552 -0.583028 -11.561110 4.298803 2.164690 0.855957 1.003070 3.671315 -8.868310 -9.897185 -68.420176 -51.664531 103.695992 -15.960990 9.191171 5.723648 -6.791145 -1.451790 0.925858 2.091936 -13.390456 7.012707 52.968230 -48.012836 -94.714300 10.067067 -9.030996 12.553549 -4.123662 -59.217518 7.061846 -30.004000 84.956924 -36.115378 -9.401141 -14.956584 11.276037 0.098111 0.091399 0.002324 10.883877 -54.893344 -13.476165 87.317182 70.618840 88.958932 0.666441 -18.975638 -2.685703 -0.014951 0.348801 -0.013021
-87.238904 55.845902 -45.921727 -171.707082 -16.607757 -0.602158 -1.452722 17.091133 0.327258 -0.149222 1.800609 0.084612 -0.247069 2.999798 0.138385 -1.188471 15.044675 0.573327 0.330076 13.423590 4.137221 -0.598713 -11.566460 4.305153 2.162105 0.847702 1.018321 3.654529 -8.903408 -9.899033 -68.420656 -51.658581 103.692305 -15.947656 9.117857 5.708556 -6.793431 -1.457909 0.939640 2.093645 -13.366157 7.019394 53.047833 -48.024991 -94.785092 10.064135 -9.002180 12.564024 -4.104042 -59.198942 7.060185 -29.609134 84.973890 -35.712234 -9.439076 -15.069060 11.306532 0.092583 0.167911 -0.025744 10.896416 -54.896392 -13.477894 87.327245 70.611915 88.973341 0.681966 -18.964922 -2.684982 -0.028331 0.340252 -0.022690
-87.230505 55.847964 -45.926524 -171.703113 -16.629994 -0.619108 -1.453703 17.091285 0.327498 -0.148653 1.771702 0.065962 -0.240403 2.993472 0.135308 -1.157259 15.031950 0.561948 0.294940 13.420332 4.143692 -0.635226 -11.581899 4.312658 2.138303 0.904432 1.072109 3.641142 -8.959103 -9.906036 -68.421561 -51.652206 103.686266 -15.965887 9.056891 5.684153 -6.813282 -1.430677 0.976200 2.118877 -13.371677 7.016711 53.062264 -48.013222 -94.803517 10.060548 -8.969123 12.573665 -4.156095 -59.134956 7.114963 -28.711585 85.005307 -34.818887 -9.567881 -15.225399 11.332926 0.118437 0.282605 -0.044802 10.865111 -54.881625 -13.450180 87.337637 70.606712 88.988298 0.705516 -18.953728 -2.684850 -0.052040 0.332392 -0.032476
-87.220540 55.851058 -45.931469 -171.698403 -16.646582 -0.632351 -1.456855 17.083271 0.321968 -0.148400 1.770270 0.064667 -0.236977 2.990033 0.133875 -1.146759 15.043650 0.570045 0.288718 13.427895 4.149596 -0.668164 -11.647050 4.287201 2.130359 0.874582 1.069337 3.626742 -8.975992 -9.893284 -68.422938 -51.646696 103.678122 -15.990636 9.007067 5.666946 -6.809870 -1.471898 0.975715 2.144100 -13.366649 7.011192 53.072382 -47.999815 -94.815045 10.057951 -8.928486 12.581797 -4.208238 -59.098576 7.173659 -28.177467 85.040469 -34.292281 -9.667972 -15.321608 11.344503 0.089103 0.220952 -0.019122 10.839391 -54.871888 -13.429760 87.341780 70.599911 88.996213 0.730501 -18.937481 -2.684786 -0.080368 0.323289 -0.041674
